<svg width="119" height="93" viewBox="0 0 119 93" fill="none" xmlns="http://www.w3.org/2000/svg">
<rect x="32" y="23" width="18" height="33" fill="#FF3030"/>
<rect x="50" y="36" width="18" height="20" fill="#FF3030"/>
<rect x="32" width="18" height="20" fill="black"/>
<rect x="53" width="36" height="20" fill="#FF3030"/>
<rect x="71" y="20" width="18" height="13" fill="#FF3030"/>
<rect x="71" y="36" width="18" height="20" fill="black"/>
<rect x="32" y="20" width="18" height="3" fill="white"/>
<rect x="50" width="3" height="36" fill="white"/>
<rect x="53" y="20" width="18" height="16" fill="white"/>
<rect x="68" y="36" width="3" height="20" fill="white"/>
<rect x="71" y="33" width="18" height="3" fill="white"/>
<path d="M12.496 73.896C12.336 73.608 11.84 73.464 11.008 73.464V72.96H14.944V73.464C14.064 73.464 13.56 73.632 13.432 73.968L8.776 87H6.832L2.128 73.968C2.016 73.632 1.504 73.464 0.592 73.464V72.96H6.688V73.464C5.952 73.464 5.488 73.56 5.296 73.752L8.968 83.808L12.496 73.896ZM15.1636 72.96H27.5716V75.288H27.0676C27.0676 74.52 26.7876 74.016 26.2276 73.776H22.8916V86.016C23.0356 86.336 23.5396 86.496 24.4036 86.496V87H18.3316V86.496C19.1956 86.496 19.6996 86.336 19.8436 86.016V73.776H16.5076C15.9476 74.016 15.6676 74.52 15.6676 75.288H15.1636V72.96ZM28.7468 87V86.496C29.6108 86.496 30.1148 86.336 30.2588 86.016V73.944C30.1148 73.624 29.6108 73.464 28.7468 73.464V72.96H34.7708V73.464C33.9068 73.464 33.4028 73.624 33.2588 73.944V86.016C33.4028 86.336 33.9068 86.496 34.7708 86.496V87H28.7468ZM37.9628 87V86.496C38.3468 86.496 38.6428 86.472 38.8508 86.424L33.3788 79.464L39.2588 73.632C39.0348 73.52 38.6268 73.464 38.0348 73.464V72.96H41.8028V73.464C41.6588 73.464 41.5308 73.472 41.4188 73.488C41.3068 73.488 41.2028 73.504 41.1068 73.536C41.0108 73.568 40.9308 73.592 40.8668 73.608C40.8028 73.624 40.7388 73.656 40.6748 73.704C40.6108 73.752 40.5628 73.784 40.5308 73.8C40.5148 73.816 40.4748 73.856 40.4108 73.92L40.3148 74.016L35.9468 78.312L41.9708 86.112C42.1788 86.368 42.6828 86.496 43.4828 86.496V87H37.9628ZM43.7937 87V86.496C44.6577 86.496 45.1617 86.336 45.3057 86.016V73.944C45.1617 73.624 44.6577 73.464 43.7937 73.464V72.96H50.1777C52.1457 72.96 53.6417 73.336 54.6657 74.088C55.7057 74.84 56.2257 75.68 56.2257 76.608C56.2257 77.808 55.7457 78.776 54.7857 79.512C53.8257 80.248 52.3857 80.616 50.4657 80.616H48.3537V86.016C48.4977 86.336 49.0017 86.496 49.8657 86.496V87H43.7937ZM48.3537 73.776V79.8H49.6257C50.8577 79.8 51.7217 79.56 52.2177 79.08C52.7297 78.584 52.9857 77.768 52.9857 76.632C52.9857 74.728 51.7697 73.776 49.3377 73.776H48.3537ZM57.076 87V86.496C57.94 86.496 58.444 86.336 58.588 86.016V77.88C57.724 77.816 57.22 77.784 57.076 77.784V77.232C57.38 77.232 58.116 77.064 59.284 76.728C60.452 76.376 61.22 76.2 61.588 76.2V77.208C62.42 76.536 63.212 76.2 63.964 76.2C65.948 76.2 66.94 76.68 66.94 77.64C66.94 78.024 66.82 78.328 66.58 78.552C66.356 78.776 66.076 78.888 65.74 78.888C65.372 78.888 65.092 78.792 64.9 78.6C64.708 78.408 64.588 78.192 64.54 77.952C64.492 77.712 64.396 77.496 64.252 77.304C64.124 77.112 63.932 77.016 63.676 77.016C63.068 77.016 62.372 77.352 61.588 78.024V86.016C61.732 86.336 62.236 86.496 63.1 86.496V87H57.076ZM70.7474 81.048C70.7474 82.936 70.9954 84.32 71.4914 85.2C72.0034 86.08 72.7794 86.52 73.8194 86.52C74.5394 86.52 75.0914 86.144 75.4754 85.392C75.8594 84.624 76.0514 83.616 76.0514 82.368C76.0514 80.416 75.8194 79.024 75.3554 78.192C74.9074 77.36 74.0994 76.944 72.9314 76.944C72.2434 76.944 71.7074 77.344 71.3234 78.144C70.9394 78.944 70.7474 79.912 70.7474 81.048ZM73.5074 87.24C71.6994 87.24 70.2594 86.712 69.1874 85.656C68.1314 84.6 67.6034 83.224 67.6034 81.528C67.6034 80.008 68.0834 78.744 69.0434 77.736C70.0194 76.712 71.4514 76.2 73.3394 76.2C75.2434 76.2 76.6914 76.704 77.6834 77.712C78.6914 78.72 79.1954 80.088 79.1954 81.816C79.1954 83.352 78.7154 84.64 77.7554 85.68C76.7954 86.72 75.3794 87.24 73.5074 87.24ZM83.1775 74.64C82.7935 74.64 82.4095 74.504 82.0255 74.232C81.6415 73.944 81.4495 73.608 81.4495 73.224C81.4495 72.888 81.6255 72.576 81.9775 72.288C82.3295 72 82.7055 71.856 83.1055 71.856C83.4895 71.856 83.8815 72 84.2815 72.288C84.6815 72.576 84.8815 72.912 84.8815 73.296C84.8815 73.632 84.6975 73.944 84.3295 74.232C83.9615 74.504 83.5775 74.64 83.1775 74.64ZM81.7615 77.856C80.9295 77.792 80.4255 77.76 80.2495 77.76V77.208C80.5535 77.208 81.2895 77.04 82.4575 76.704C83.6255 76.352 84.3935 76.176 84.7615 76.176V88.032C84.7615 89.312 84.3695 90.256 83.5855 90.864C82.8015 91.472 81.9215 91.776 80.9455 91.776C78.8655 91.776 77.8255 91.08 77.8255 89.688C77.8255 89.352 77.9295 89.056 78.1375 88.8C78.3295 88.56 78.6095 88.44 78.9775 88.44C79.3135 88.44 79.5775 88.56 79.7695 88.8C79.9455 89.056 80.0335 89.344 80.0335 89.664C80.0335 89.888 79.9535 90.08 79.7935 90.24C79.7935 90.784 80.0975 91.056 80.7055 91.056C81.0095 91.056 81.2575 90.824 81.4495 90.36C81.6575 89.896 81.7615 89.232 81.7615 88.368V77.856ZM89.989 81.216C90.021 82.608 90.333 83.808 90.925 84.816C91.533 85.824 92.301 86.328 93.229 86.328C94.621 86.328 95.741 85.8 96.589 84.744L97.165 85.032C96.701 85.8 96.093 86.36 95.341 86.712C94.605 87.064 93.629 87.24 92.413 87.24C91.789 87.24 91.181 87.152 90.589 86.976C89.997 86.784 89.405 86.48 88.813 86.064C88.237 85.632 87.765 85 87.397 84.168C87.045 83.336 86.869 82.344 86.869 81.192C86.869 79.8 87.357 78.624 88.333 77.664C89.325 76.688 90.605 76.2 92.173 76.2C93.885 76.2 95.213 76.688 96.157 77.664C97.101 78.624 97.573 79.808 97.573 81.216H89.989ZM90.013 80.472H94.381C94.285 79.336 94.085 78.464 93.781 77.856C93.493 77.232 93.021 76.92 92.365 76.92C91.789 76.92 91.269 77.216 90.805 77.808C90.357 78.384 90.093 79.272 90.013 80.472ZM104.724 76.92C103.972 76.92 103.332 77.304 102.804 78.072C102.276 78.824 102.012 79.832 102.012 81.096C102.012 82.52 102.3 83.752 102.876 84.792C103.452 85.816 104.204 86.328 105.132 86.328C106.476 86.328 107.492 85.752 108.18 84.6L109.068 85.032C108.604 85.8 107.996 86.36 107.244 86.712C106.508 87.064 105.532 87.24 104.316 87.24C103.836 87.24 103.364 87.184 102.9 87.072C102.436 86.976 101.956 86.784 101.46 86.496C100.964 86.208 100.532 85.848 100.164 85.416C99.7964 84.984 99.4924 84.408 99.2524 83.688C99.0124 82.952 98.8924 82.12 98.8924 81.192C98.8924 79.816 99.4204 78.64 100.476 77.664C101.532 76.688 102.868 76.2 104.484 76.2C105.78 76.2 106.82 76.424 107.604 76.872C108.404 77.304 108.804 77.928 108.804 78.744C108.804 79.144 108.7 79.472 108.492 79.728C108.3 79.984 108.004 80.112 107.604 80.112C107.22 80.112 106.908 80.024 106.668 79.848C106.444 79.656 106.332 79.408 106.332 79.104C106.332 78.768 106.412 78.52 106.572 78.36C106.748 78.2 106.948 78.12 107.172 78.12C106.964 77.32 106.148 76.92 104.724 76.92ZM114.695 72.96V76.44H116.759V77.16H114.695V84.792C114.695 85.288 114.783 85.672 114.959 85.944C115.135 86.2 115.463 86.328 115.943 86.328C116.231 86.328 116.519 86.192 116.807 85.92C117.111 85.632 117.319 85.24 117.431 84.744L118.007 85.032C117.671 86.504 116.711 87.24 115.127 87.24C113.879 87.24 112.967 86.96 112.391 86.4C111.831 85.824 111.551 84.888 111.551 83.592V77.16H109.871V76.44C110.815 76.44 111.639 76.088 112.343 75.384C113.047 74.664 113.399 73.856 113.399 72.96H114.695Z" fill="black"/>
</svg>
